<?xml version="1.0" encoding="utf-8"?>
<!DOCTYPE svg PUBLIC "-//W3C//DTD SVG 1.0//EN" "http://www.w3.org/TR/2001/REC-SVG-20010904/DTD/svg10.dtd">
<svg version="1.0" xmlns="http://www.w3.org/2000/svg" width="699px" height="695px" viewBox="0 0 699 695" preserveAspectRatio="xMidYMid meet">
 <g fill="#18402d">
  <path d="M303.3 693.4 c-61 -7.4 -120.1 -32.9 -172.3 -74.3 -12.8 -10.1 -43.6 -41 -54.4 -54.6 -10.7 -13.3 -27.4 -38.3 -35.1 -52.3 -22.9 -41.8 -36.9 -88.9 -41 -138.4 l-0.7 -7.8 42.5 0 42.5 0 0.7 6.8 c3 31.7 11.6 61.4 26.5 91.7 13.1 26.5 26.9 46.1 47.5 67.4 43.3 44.6 99.5 72.7 158.8 79.2 l10.7 1.2 0 41.3 0 41.4 -7.2 -0.1 c-4 -0.1 -12.3 -0.7 -18.5 -1.5z"/>
  <path d="M369 653.6 l0 -41.3 8.8 -0.7 c20.3 -1.7 48.8 -8.5 69.2 -16.6 14.8 -5.9 36.9 -17.5 50.2 -26.3 39.2 -26.2 71.1 -62.4 91.7 -104.2 14.1 -28.3 24.3 -65 26.4 -94.5 l0.2 -3.5 41.9 -0.3 41.9 -0.2 -0.7 9.7 c-3.4 49.4 -21.3 104.8 -48.6 150.3 -46.6 77.7 -126.6 137.8 -212.5 159.4 -20.8 5.2 -49.5 9.6 -62.7 9.6 l-5.8 0 0 -41.4z"/>
  <path d="M369.2 545.8 l0.3 -61.3 6 -0.7 c7.9 -1 21.4 -5 31.1 -9.1 42.6 -18.3 74 -58.6 81.9 -105 l0.6 -3.7 60.2 0.2 60.2 0.3 -0.3 5.5 c-0.5 9.1 -3.1 24.7 -6.3 37.8 -11 45.2 -34.7 87.1 -68.3 120.7 -20.1 20 -40.3 35 -64.6 47.9 -25.7 13.5 -60.1 24.2 -87.5 27 -3.3 0.4 -7.7 0.9 -9.8 1.2 l-3.7 0.6 0.2 -61.4z"/>
  <path d="M313 604.9 c-46.3 -7.2 -84.2 -23.4 -122.5 -52.2 -11 -8.3 -38.5 -36.1 -47.4 -48 -14.6 -19.6 -26.9 -41.3 -34.9 -61.8 -8.8 -22.4 -15.4 -49.2 -16.8 -67.7 l-0.7 -9.2 59.5 0 59.4 0 1.2 7.3 c6 34.9 28.4 68.8 59.1 89.1 15.2 10.1 35 18.2 50.6 20.8 l8 1.4 0.3 60.7 0.2 60.7 -5.2 -0.1 c-2.9 -0.1 -7.8 -0.5 -10.8 -1z"/>
  <path d="M330 411 l0 -46 -45 0 -45 0 0 -19 0 -19 45 0 45 0 0 -45.5 0 -45.5 19 0 19 0 0 45.5 0 45.5 45.8 0.2 45.7 0.3 0.3 18.8 0.2 18.7 -46 0 -46 0 -0.2 45.8 -0.3 45.7 -18.7 0.3 -18.8 0.2 0 -46z"/>
  <path d="M0.5 318.8 c3.4 -38 13.3 -76.8 28.4 -111.2 22 -50.2 56.7 -95.7 99.3 -130.4 54.4 -44.3 122.6 -71.6 191.6 -76.8 l9.2 -0.7 0 41.6 0 41.6 -5.7 0.6 c-22.4 2.4 -43.9 7 -61.4 13.1 -81.2 28.2 -143.6 94.2 -167.5 176.7 -3.2 11.2 -7.4 32.9 -8.9 47 l-0.6 5.7 -42.5 0 -42.5 0 0.6 -7.2z"/>
  <path d="M91.5 318.3 c1 -11.7 4 -27.3 8 -41.6 16.9 -61.8 57.7 -116.2 112.8 -150.3 22 -13.7 54.7 -27.1 78.8 -32.2 10.2 -2.3 30.2 -5.2 34.9 -5.2 l3 0 0 58.5 0 58.5 -2.2 0.4 c-1.3 0.3 -5 1 -8.3 1.7 -3.3 0.6 -9.9 2.4 -14.8 4 -47.5 15.5 -83.4 56 -92.6 104.4 l-1.8 9 -59.2 0.3 -59.3 0.2 0.7 -7.7z"/>
  <path d="M488 318.8 c-7.3 -41.8 -35.8 -80.2 -73.5 -99.1 -10.2 -5.1 -24.9 -10.1 -34.5 -11.7 -3.6 -0.6 -7.5 -1.3 -8.7 -1.6 l-2.3 -0.4 0 -58.5 0 -58.5 3.8 0 c6.6 0 31.4 4 43.2 7 45.4 11.5 83.2 32.7 116.9 65.5 44.2 43.1 69.4 95.3 76.6 159.3 l0.6 5.2 -60.4 0 -60.4 0 -1.3 -7.2z"/>
  <path d="M615.6 324.8 c-0.2 -0.7 -0.9 -6 -1.6 -11.8 -6.3 -57.2 -35.3 -115.4 -77.6 -156 -5.5 -5.2 -13.5 -12.4 -17.8 -15.9 -20.3 -16.6 -51.6 -34.3 -75.8 -42.9 -19.9 -7 -52.7 -14.2 -65.4 -14.2 -2.2 0 -4.9 -0.3 -6.1 -0.6 l-2.3 -0.6 0 -41.4 0 -41.4 4 0 c2.2 0 10.7 0.7 18.8 1.5 129.6 13.5 242.6 102.6 287.7 227 10.2 28.1 17.1 60 19.1 87.8 l0.7 9.7 -41.7 0 c-32.5 0 -41.7 -0.3 -42 -1.2z"/>
 </g>
</svg>