<?xml version="1.0" encoding="utf-8"?>
<!DOCTYPE svg PUBLIC "-//W3C//DTD SVG 1.0//EN" "http://www.w3.org/TR/2001/REC-SVG-20010904/DTD/svg10.dtd">
<svg version="1.0" xmlns="http://www.w3.org/2000/svg" width="539px" height="628px" viewBox="0 0 539 628" preserveAspectRatio="xMidYMid meet">
 <g fill="#0d3653">
  <path d="M 246.9 617.2 c -68.1 -34.5 -110.1 -67.6 -151.1 -119.2 -12.5 -15.7 -22.5 -31.1 -36.1 -55.1 -12.7 -22.6 -20.8 -41.2 -31.8 -73.8 -5.5 -16.3 -5.8 -17.7 -4.2 -18.8 0.9 -0.7 2.7 -1.3 3.9 -1.3 1.3 0 2.6 -0.4 2.9 -1 0.3 -0.6 2.6 -1 5.1 -1 4.2 0 4.4 0.1 4.4 2.9 0 4.6 1 6.1 4 6.1 2.1 0 2.9 0.6 3.4 2.5 0.5 1.8 1.5 2.6 4.1 3.1 3.4 0.6 3.5 0.8 3.5 5.3 0 2.5 0.4 5.1 0.8 5.8 0.4 0.7 3.6 1.3 7.1 1.5 6.3 0.3 6.3 0.3 10.5 10.8 4.6 11.4 20.3 43.7 22.4 45.8 0.6 0.7 1.2 2.2 1.2 3.3 0 1 0.4 1.9 0.8 1.9 0.5 0 3.3 3.7 6.2 8.3 7.4 11.3 19.5 28.1 24.7 34.3 2.4 2.8 4.3 5.9 4.3 6.8 0 0.9 0.5 1.6 1.1 1.6 0.6 0 8.1 7.1 16.7 15.8 27.3 27.5 52.1 46.5 87.7 66.9 7.7 4.4 17.7 9.9 22.3 12.2 8.2 4.1 8.2 4.1 16.5 0 18.1 -9.1 43.9 -24.8 61.2 -37.3 35.1 -25.3 59.5 -50.2 85.5 -87.2 52.6 -74.9 78.2 -170.9 76.8 -287.9 -0.3 -27 -0.3 -27 -3.8 -28.7 -1.9 -0.9 -8.4 -2.4 -14.5 -3.3 -24.8 -3.6 -52.3 -10.6 -90.4 -23.1 -3.4 -1.1 -5.6 -2.5 -5.9 -3.6 -0.3 -1.3 -1.4 -1.8 -4.3 -1.8 -2.2 0 -3.9 -0.4 -3.9 -1 0 -0.5 -0.8 -1 -1.9 -1 -1 0 -2.1 -0.8 -2.3 -1.8 -0.3 -1 -2.3 -2.2 -5.2 -3 -4.8 -1.2 -4.8 -1.2 -4.4 -5.2 0.3 -3.8 0.3 -3.9 -3.2 -4.2 -2.7 -0.2 -3.6 -0.8 -3.8 -2.4 -0.2 -1.6 -0.8 -2 -2.8 -1.6 -1.3 0.2 -2.4 1.1 -2.4 1.8 0 0.9 -1.2 1.4 -3.5 1.4 -3.3 0 -3.5 -0.2 -3.5 -3.5 0 -1.9 0.5 -3.5 1 -3.5 0.6 0 1 -1.3 1 -3 0 -2.9 0.1 -3 4.9 -3 4.3 0 5 0.3 5.4 2.2 0.2 1.3 0.5 0.2 0.6 -2.4 0.1 -4.8 0.1 -4.8 3.9 -4.8 3.2 0 4.1 -0.5 5 -2.5 0.7 -1.4 1.2 -4.1 1.2 -6 0 -1.9 0.2 -3.5 0.5 -3.5 0.3 0 2.8 1.1 5.5 2.5 3.5 1.8 5 3.1 5 4.5 0 2.3 0.4 2.4 3 1 1.3 -0.7 3.3 -0.3 7.7 1.6 30.7 13.7 75.4 24.9 121.1 30.4 18 2.2 23.8 3.2 25.3 4.6 1.8 1.6 1.9 3.6 1.9 54.8 0 63.6 -1.7 86.6 -9.6 134.6 -13.7 83.1 -45.8 153.9 -98.3 216.5 -26.6 31.8 -68.4 65.6 -112.1 90.6 -12.7 7.2 -47.5 24.9 -49.1 24.9 -0.3 0 -10.2 -4.9 -22 -10.8 z  m 134.1 -523.2 c 0 -1.6 -7.2 -3 -11 -2.1 -3.5 0.9 -3.5 0.9 1 1.1 2.5 0.1 5.4 0.5 6.5 1 2.7 1.2 3.5 1.2 3.5 0 z "/>
 </g>
 <g fill="#0e4467">
  <path d="M 142.6 500.5 c -0.3 -0.8 -1.3 -1.5 -2.2 -1.5 -1 0 -1.4 -0.3 -1.1 -0.7 0.4 -0.3 0.2 -1.2 -0.4 -2 -0.9 -1 -0.5 -1.3 2 -1.3 2.9 0 3.1 0.2 3.1 3.5 0 3.8 -0.4 4.4 -1.4 2 z "/>
  <path d="M 134.7 492.2 c -0.5 -0.7 -2 -1.8 -3.4 -2.3 -1.5 -0.5 -2.3 -1.5 -2 -2.3 0.3 -0.7 0 -1.9 -0.6 -2.5 -0.8 -0.8 -0.3 -1.1 2 -1.1 3.9 0 5.5 2 5.1 6.2 -0.2 2.2 -0.6 2.9 -1.1 2 z "/>
  <path d="M 104 451.5 c -0.7 -0.8 -2 -1.5 -2.9 -1.6 -1.1 0 -1.2 -0.2 -0.3 -0.6 1 -0.4 1 -0.8 0.1 -1.9 -0.9 -1.1 -0.6 -1.4 2 -1.4 2.9 0 3.1 0.2 3.1 3.5 0 3.9 -0.2 4.1 -2 2 z "/>
  <path d="M 96.5 440.4 c -0.6 -0.9 -2.6 -1.7 -4.5 -1.9 -1.9 -0.2 -4.1 -0.3 -4.7 -0.4 -1.8 -0.1 -1.6 -3 0.2 -3.8 0.9 -0.3 2.5 0.3 3.5 1.2 2.3 2 3.4 1.6 2.4 -0.9 -0.3 -0.9 -1.7 -1.6 -3 -1.6 -1.3 0 -2.4 -0.4 -2.4 -1 0 -0.5 0.7 -1 1.5 -1 0.9 0 1.2 -0.6 0.9 -1.5 -0.5 -1.1 0.1 -1.5 2 -1.5 2.2 0 2.6 0.4 2.6 2.9 0 2 0.6 3 2 3.4 1.5 0.4 2 1.4 2 4.1 0 3.9 -0.9 4.6 -2.5 2 z "/>
  <path d="M 74.7 398.6 c -0.4 -1 -0.5 -2.1 -0.2 -2.4 0.9 -0.9 1.7 0.6 1.3 2.5 -0.3 1.7 -0.4 1.7 -1.1 -0.1 z "/>
  <path d="M 66.6 378.4 c -0.4 -1.2 -1.3 -1.4 -3.2 -1 -1.4 0.4 -4.5 0.4 -6.8 0.1 -4.6 -0.7 -4.7 -0.9 -4.9 -8.2 -0.1 -2.3 -0.4 -4 -0.8 -3.7 -1.4 0.8 -6 -2.2 -6.5 -4.3 -0.5 -1.7 -1.4 -2.3 -3.4 -2.3 -3 0 -4 -1.5 -4 -6.1 0 -3.2 -2.3 -4 -3.8 -1.3 -0.6 1.1 -1.7 1.5 -3.1 1.1 -1.2 -0.3 -3 0.2 -4.4 1.4 -2.4 1.8 -2.4 1.8 -6 -11.9 -6.6 -25.1 -12.1 -55.4 -14.6 -80.7 -0.7 -6 -1.6 -15.7 -2.2 -21.5 -0.6 -5.8 -1.3 -37.8 -1.6 -71.1 -0.6 -68.6 -1.2 -63.2 7.9 -64.4 41.9 -5.4 71.6 -10.8 92.3 -16.9 53.9 -15.8 97.4 -37.5 149.2 -74.8 9.2 -6.6 17.3 -12.2 17.8 -12.4 0.6 -0.3 4.8 2.3 9.4 5.7 30.5 22.3 51.7 35.7 78.6 49.6 9.9 5.1 17.3 9.3 16.4 9.3 -0.9 0 -1.6 0.7 -1.6 1.5 0 1.7 4.3 2.1 4.9 0.5 0.2 -0.7 2.4 -0.2 5.7 1.3 5 2.2 5.2 2.4 3.6 4 -0.9 0.9 -3.1 1.7 -5 1.7 -2.2 0 -3.5 0.6 -4 1.8 -0.6 1.6 -0.7 1.6 -1.9 -0.1 -0.7 -0.9 -1.8 -1.7 -2.3 -1.7 -0.6 0 -0.8 -1.2 -0.6 -2.8 0.3 -1.9 0 -1.6 -1.1 1.3 -0.9 2.2 -1.6 4.1 -1.6 4.3 0 0.1 -1.7 0.2 -3.9 0.2 -3.9 0 -3.9 0 -4.4 5.8 -0.2 3.1 -0.1 6.1 0.3 6.5 0.4 0.4 2.7 0.3 5.1 -0.2 5.7 -1.3 9.5 -1.3 14.2 0 3.7 1 3.7 1 3.7 6.8 0 4.3 -0.4 6 -1.5 6.5 -2.1 0.8 -1.9 3.6 0.3 3.4 4 -0.3 6.2 0.3 6.2 1.7 0 0.9 0.7 1.8 1.5 2.1 2.5 1 1.7 2.4 -1.5 2.4 -3 0 -16.4 -5 -30.3 -11.4 -26.4 -12.1 -52.4 -26.6 -79.3 -44.1 -6.2 -4 -11.6 -6.9 -12 -6.5 -1.4 1.3 -29.9 19 -41.4 25.7 -24.5 14.2 -62.1 31.4 -88 40.3 -24.5 8.4 -52.6 15.6 -80 20.5 -15.6 2.8 -18.6 4.1 -19.6 8.2 -0.9 3.5 0.3 69.6 1.6 88.3 1.8 25.8 6.4 59.7 11.1 82 2.7 12.6 8.9 34.2 13.9 48 3.8 10.7 5 17 3.1 17 -0.5 0 -1.2 -0.7 -1.5 -1.6 z  m 313.4 -276.6 c 0 -3.4 -10 -7.3 -12.3 -4.8 -0.9 1 -0.9 1.1 0.1 0.6 0.6 -0.4 1.2 -0.3 1.2 0.3 0 0.6 1.6 1.3 3.6 1.7 2.3 0.4 3.8 1.3 4.1 2.5 0.5 1.8 3.3 1.6 3.3 -0.3 z  m -26.2 -18.1 c 0.2 -1.2 -0.3 -1.7 -1.7 -1.7 -1.5 0 -2.1 0.6 -2.1 2.1 0 2.5 3.3 2.2 3.8 -0.4 z "/>
 </g>
 <g fill="#019bf3">
  <path d="M 255.5 583.7 c -43.4 -22.7 -75.7 -45.8 -104.5 -74.7 -19.6 -19.7 -30 -32.3 -46.4 -56.4 -24 -35.2 -47 -90 -56.5 -134.6 -4.7 -22.3 -9.3 -56 -11.1 -82 -1.3 -18.3 -2.5 -90.7 -1.6 -94.3 1 -4.1 4 -5.4 19.6 -8.2 70.6 -12.6 127.4 -35 193.2 -76.1 6.8 -4.2 13.7 -8.7 15.5 -10 1.7 -1.3 3.8 -2.4 4.5 -2.4 0.8 0 6.5 3.4 12.8 7.5 59.8 39.5 116.7 64 179.5 77.3 10.5 2.2 22.8 4.5 27.5 5.2 4.7 0.6 10.1 1.9 12 2.8 3.5 1.7 3.5 1.7 3.8 31.7 0.3 30 -0.6 52.2 -3.4 79.5 -8.3 83.5 -32.5 153.2 -73.4 211.4 -34.6 49.4 -70 81 -128 114.3 -12.9 7.4 -28.5 15.3 -30.2 15.3 -0.7 0 -6.7 -2.9 -13.3 -6.3 z  m 13.9 -100.9 c 1.3 -15 1.9 -30.8 1 -30.8 -0.5 0 -2 0.9 -3.4 2 -2.3 1.8 -2.5 2.5 -2.5 10.2 0.1 9.4 2.4 27 3.5 26.3 0.4 -0.2 1 -3.7 1.4 -7.7 z  m -10.5 -37.1 c -0.2 -0.1 -1.3 -0.7 -2.4 -1.3 -1.7 -0.9 -2.1 -2.3 -2.3 -8.1 -0.4 -10.8 1.2 -12.3 20.6 -18.9 8.7 -2.9 12.5 -4.8 15.8 -7.7 9.3 -8.2 10.8 -17.4 4.2 -26 -1.3 -1.8 -1.6 -1.8 -7.5 0 -6.2 1.8 -6.2 1.8 -4 4.1 1.8 1.9 2.2 3.5 2.2 8.9 0 6 -0.3 6.7 -3 8.9 -1.6 1.3 -5.6 3.3 -9 4.5 -14.4 5.3 -23.7 11.5 -27.1 18.1 -1.8 3.5 -1.8 12.1 0.1 15.7 0.8 1.6 2.8 4 4.5 5.5 3.1 2.6 3.1 2.6 5.7 -0.4 1.4 -1.7 2.4 -3.2 2.2 -3.3 z  m 27.2 1.6 c 4.3 -4.6 5.4 -9.4 3.4 -15.2 -2.3 -7 -3.1 -7.5 -10.1 -5.2 -3.2 1 -5 1.9 -3.8 2 1.1 0.1 2.9 1 3.9 2.1 1.5 1.7 1.7 3.1 1 11.6 -0.7 9.1 -0.6 9.5 1.2 8.6 1 -0.6 3 -2.3 4.4 -3.9 z  m -15.1 -12.5 c 0 -2.6 -0.2 -4.8 -0.5 -4.8 -0.4 0 -1.9 0.7 -3.5 1.5 -2.7 1.4 -3 2 -3 6.5 0 5 0 5 3.5 3.3 3.3 -1.6 3.5 -2 3.5 -6.5 z  m -20 -26.2 c 3.1 -1.8 3.7 -2.5 2.5 -3 -2.5 -0.9 -4.8 -7.5 -4.2 -11.9 1.1 -7.7 6.1 -11.8 19.2 -15.6 14.2 -4.1 25.9 -8.2 29 -10.1 9.2 -5.7 14 -16.7 11.5 -26.1 -1.2 -4.4 -7.2 -12.9 -9.2 -12.9 -0.5 0 -4.9 1.2 -9.7 2.7 -8.4 2.6 -8.5 2.7 -5.4 3.6 1.7 0.5 4.6 2.2 6.4 3.7 2.9 2.3 3.3 3.3 3.6 8.6 0.7 10.6 -2.7 13.6 -23.8 20.4 -16.7 5.5 -23.7 8.9 -28.6 14.3 -5.3 5.8 -7.1 11.2 -5.4 16.8 1.1 3.7 7.4 11.9 9.1 11.9 0.4 0 2.7 -1.1 5 -2.4 z  m 17.7 -7.8 c 3.2 -1.2 3.3 -1.3 3.3 -7 0 -3.2 -0.2 -5.8 -0.5 -5.8 -0.3 0 -2.1 0.7 -4 1.4 -3.4 1.5 -3.5 1.7 -3.5 7 0 3.1 0.3 5.6 0.7 5.6 0.4 0 2.2 -0.5 4 -1.2 z  m -17.7 -37.9 c 0 -0.3 -1.5 -1.2 -3.3 -2.1 -4.7 -2.2 -7.1 -7.6 -6.4 -14.1 0.8 -6.1 4 -10.6 9.9 -13.5 5 -2.5 29.6 -10.4 39 -12.6 17.1 -4 29.6 -13.9 32.9 -26.1 3.8 -13.9 -8.9 -31.5 -22.8 -31.5 -3.1 0 -4.7 0.7 -7.4 3.3 -1.9 1.7 -3.1 2.9 -2.5 2.5 1.7 -1.3 8.3 -0.9 9.5 0.6 0.7 0.8 1.1 3.2 0.9 5.3 -0.3 3.8 -0.3 3.8 -5.8 3.8 -5.5 0 -5.5 0 -5.8 -3.6 -0.3 -3.5 -0.3 -3.5 -3.7 -0.3 -4 3.7 -4.1 4.1 -1.8 6.6 2.1 2.3 9.6 2.4 14.8 0.2 2 -0.8 5.3 -1.4 7.3 -1.2 3.7 0.3 3.7 0.3 4 7.3 0.4 9.5 -2.6 14.3 -11.3 18.5 -5.8 2.7 -23.9 9 -36 12.5 -12.8 3.6 -24.8 9.4 -28.9 13.8 -10.2 11 -9.8 21.7 1 32.8 4.5 4.6 4.5 4.6 10.4 1.5 3.3 -1.7 6 -3.4 6 -3.7 z  m 20.6 -5.9 c 0.2 0 0.4 -4.5 0.4 -10 0 -5.5 -0.2 -10 -0.5 -10 -0.3 0 -2.1 0.7 -4 1.4 -3.5 1.5 -3.5 1.5 -3.5 11.6 0 10 0 10 3.6 8.5 2 -0.8 3.8 -1.5 4 -1.5 z  m -26.4 -43.7 c 6.7 -2.9 6.7 -2.9 0 -4.6 -8.5 -2.2 -12.3 -4.5 -16.2 -9.9 -2.8 -3.9 -3.1 -4.8 -2.8 -11.3 0.3 -7 0.3 -7 3.6 -7.3 1.9 -0.2 5.2 0.4 7.3 1.2 5.1 2.1 11.3 2 14.4 0 3 -2 3.2 -4 0.5 -5.6 -1.1 -0.7 -3.2 -3 -4.7 -5.1 -6.8 -9.7 -15.8 -10.2 -26.1 -1.2 -5 4.4 -8.4 11.1 -9 18.1 -0.8 9.7 7.3 22.4 18.2 28.2 4.1 2.2 3.6 2.3 14.8 -2.5 z  m 25.4 -8.4 c 0.7 -0.6 1.3 -10.1 1.8 -27.1 0.3 -14.5 0.9 -30.7 1.3 -36.1 0.6 -9.8 0.6 -9.8 -5.6 -9.5 -3.3 0.2 -6.2 0.6 -6.3 1.1 0 0.4 0.5 17.1 1.2 37.2 1.3 36.5 1.3 36.5 3.9 35.8 1.4 -0.3 3.1 -1 3.7 -1.4 z  m -70.7 -57.4 c 5 -2.4 19.1 -15.4 19.1 -17.6 0 -0.5 2.3 -0.9 5 -0.9 5 0 5 0 5 3.5 0 2.1 -1.1 5.2 -2.6 7.6 -1.4 2.3 -2.3 4.3 -2.1 4.6 1 1 8.5 -3.8 12 -7.6 2.7 -3 4.5 -4.1 6.6 -4.1 5.9 0 6.1 -0.4 6.1 -11 0 -9.7 0 -9.7 -6 -10.3 -10.3 -0.9 -15 -5.7 -15 -15.4 0 -3.1 -3.8 -11.3 -6.9 -15.1 -1.1 -1.2 -4.5 -3.6 -7.6 -5.2 -5.7 -3 -5.7 -3 -70.6 -3 -51.3 0 -64.9 0.3 -64.9 1.3 0 1.8 4.4 9.2 8.4 14 4 4.9 13.7 10.2 21.1 11.6 3.1 0.6 8.6 0.6 14.5 0.1 15 -1.5 44.4 -3 57.3 -3 11.7 0 11.7 0 11.7 3.4 0 3.4 0 3.4 -9.2 5.1 -5 0.9 -15.5 2.3 -23.2 3 -7.8 0.8 -19.3 1.9 -25.7 2.5 -6.4 0.7 -14.6 1 -18.3 0.8 -6.7 -0.3 -6.7 -0.3 -1.6 4.6 7.1 6.8 16.6 10.1 24.7 8.6 3.2 -0.5 6.2 -1.5 6.7 -2 0.6 -0.6 2 -1 3.2 -1 1.2 0 5.3 -1.3 9 -2.9 10.1 -4.3 37.5 -13.1 40.6 -13.1 2.5 0 2.8 0.4 2.8 3.4 0 3.5 -0.1 3.5 -14.7 10.9 -14.2 7.2 -36.5 15.7 -41.1 15.7 -5.8 0 1.4 5.5 8.5 6.6 7 1 13 -1.1 23.3 -8.3 5.2 -3.6 11.1 -8 13.1 -9.7 10.7 -9.1 11.7 -9.7 16.2 -9.4 4 0.3 4.2 0.5 4.5 3.7 0.4 4.1 -1.1 5.8 -16.7 18.9 -11.4 9.6 -11.4 9.6 -8 10.8 5.2 1.9 8.9 1.6 14.8 -1.1 z  m 150.8 1 c 3.7 -1.6 3.7 -1.6 1.1 -3.3 -1.4 -0.9 -7.8 -6.4 -14.2 -12.1 -11.3 -9.9 -11.7 -10.5 -11.4 -14 0.3 -3.4 0.5 -3.6 4 -3.9 3 -0.3 4.7 0.4 8.4 3.2 2.6 2 5 3.6 5.5 3.6 0.4 0 2 1.2 3.6 2.8 1.5 1.5 4.1 3.6 5.7 4.7 1.6 1.1 4.7 3.4 7 5 9.7 7.2 11.7 8 19.1 8 5.3 -0.1 8 -0.6 11.3 -2.3 2.4 -1.3 4.1 -2.6 3.7 -3 -0.4 -0.4 -3.2 -1.2 -6.3 -1.9 -9.4 -2 -11.7 -2.6 -12.2 -3.3 -0.3 -0.4 -3.9 -2 -8 -3.6 -4.1 -1.6 -12.6 -5.5 -18.7 -8.7 -11.1 -5.6 -11.3 -5.8 -11.3 -9.2 0 -3.3 0.2 -3.5 3.4 -3.5 4.6 0 17.9 4.1 32.3 9.9 2.8 1.2 5.9 2.1 6.8 2.1 0.9 0 2.3 0.7 3.1 1.5 0.9 0.8 2.4 1.5 3.5 1.5 1.1 0 2.9 0.5 4 1 1 0.6 4.3 1.5 7.2 2.1 8.2 1.5 17 -1.6 24.3 -8.4 5.5 -5.2 5.5 -5.2 -6.8 -5.4 -18.4 -0.2 -46.1 -2.9 -62.5 -6 -8.3 -1.6 -8.3 -1.6 -8.3 -4.8 0 -3.3 0 -3.3 6.3 -3.8 3.4 -0.3 12.3 -0.1 19.7 0.4 7.4 0.5 17.8 1.1 23 1.3 5.2 0.2 14 0.9 19.5 1.5 11.3 1.3 16.7 0.5 24.8 -3.6 8.4 -4.2 16.6 -13.1 18.7 -20.1 0.9 -3.2 0.9 -3.2 -63.9 -3.2 -64.8 0 -64.8 0 -70.9 3 -7.8 3.9 -13 11.2 -13.8 19.2 -1.2 11.6 -4.9 15.5 -15.9 16.5 -6.5 0.6 -6.5 0.6 -6.5 8.9 0 11.1 0.2 11.4 6.1 11.4 3.3 0 4.9 0.4 4.9 1.3 0 1.8 6.7 8.1 10.8 10.1 4 2.1 4.2 0.7 0.7 -4.9 -1.3 -2.2 -2.5 -5.5 -2.5 -7.4 0 -3.4 0 -3.4 4.8 -2.8 3.9 0.5 5.6 1.3 9 4.7 2.3 2.4 4.2 4.6 4.2 5.1 0 1 7.6 7.2 10.9 8.9 6.2 3.2 10.7 3.6 15.8 1.5 z  m -75.7 -35.8 c 0 -9.7 -1 -12.5 -5 -14.7 -2.3 -1.2 -7.4 0.9 -8.4 3.5 -0.3 0.9 -0.6 5.9 -0.6 11.1 0 9.4 0 9.4 7 9.4 7 0 7 0 7 -9.3 z  M288.6 162.4 C 288.6 150.9 279.3 141.5 267.7 141.5 256.1 141.5 246.8 150.9 246.8 162.4 246.8 174 256.1 183.3 267.7 183.3 279.3 183.3 288.6 174 288.6 162.4 Z M278.5 180.1 "/>
  <path d="M 235.7 278.4 c -1.2 -1.2 -0.8 -7.9 0.5 -9.2 0.7 -0.7 2.9 -1.2 5 -1.2 3.1 0 3.9 0.4 4.4 2.4 0.3 1.3 0.4 3.7 0.2 5.2 -0.3 2.7 -0.7 2.9 -4.8 3.2 -2.5 0.2 -4.9 0 -5.3 -0.4 z "/>
  <path d="M 232 227.1 c -10.3 -3.2 -17.9 -11.5 -21 -23.1 -1.8 -6.7 -3.7 -9.8 -7 -11.5 -2.4 -1.2 -8.2 -1.5 -34.7 -1.5 -27.9 0 -38.4 -0.6 -47 -2.5 -1.9 -0.4 -2.3 -1.2 -2.3 -4 0 -3.5 0 -3.5 42.8 -3.4 29.6 0 43.9 0.4 46.6 1.2 5.2 1.6 9.2 6.7 11.4 14.7 2.8 9.9 6 14.3 13.3 17.9 3.4 1.7 7.3 3.1 8.6 3.1 2.1 0 2.3 0.4 2.3 5 0 5 0 5 -5.2 4.9 -2.9 0 -6.4 -0.4 -7.8 -0.8 z "/>
  <path d="M 289 224.3 c 0 -5 0.7 -5.9 5.5 -6.7 6 -1.1 13.1 -5.4 15.7 -9.5 3 -4.5 4.8 -8.7 4.8 -10.8 0 -0.9 1.1 -4 2.5 -6.8 2 -4.3 3.3 -5.7 7 -7.4 4.3 -2 5.7 -2.1 47.5 -2.1 43 0 43 0 43 3.5 0 5.5 -2.2 5.8 -44.8 6.2 -37.3 0.4 -37.3 0.4 -41.1 4.2 -2.8 2.8 -4 5 -4.5 8.2 -0.4 2.4 -1.5 6.1 -2.5 8.4 -2.2 4.9 -9.4 12.1 -13.8 13.7 -1.8 0.7 -3.3 1.6 -3.3 2 0 0.4 -3.6 0.8 -8 0.8 -8 0 -8 0 -8 -3.7 z "/>
 </g>
 <g fill="#ffffff">
  <path d="M 265.2 495.3 c -0.9 -1.8 -2.2 -9.6 -4.2 -26.6 -1.7 -13.6 0.9 -18.9 10.3 -21.2 2.7 -0.7 2.7 -0.7 2.7 10.6 0 11.4 -1.6 31.3 -2.9 35.9 -0.9 3.1 -4.6 3.9 -5.9 1.3 z "/>
  <path d="M 249.9 453.7 c -6.6 -5 -8.2 -8.4 -8.1 -17.6 0 -9.1 1.2 -11.9 7.2 -17.5 4.4 -4 11.2 -7.7 21.5 -11.5 8.7 -3.2 11.7 -5.8 11.8 -10.5 0.1 -3 -0.5 -4.4 -2.7 -6.2 -1.5 -1.3 -3.1 -2.4 -3.7 -2.4 -0.5 0 -0.9 3.3 -0.9 7.3 0 7.3 0 7.3 -5.2 9.2 -6.2 2.1 -16.2 7 -20 9.6 -1.4 1.1 -3.2 1.9 -4 1.9 -2.1 0 -9.5 -8 -11.3 -12.2 -1.9 -4.8 -1.9 -12.8 0 -17.6 3.8 -9 12.1 -14.2 33.4 -21.2 14.8 -4.8 19.7 -7.3 22.2 -11.3 4.3 -7 -0.9 -14.1 -12 -16.3 -3.1 -0.6 -3.1 -0.6 -3.1 10.9 0 12.9 0.8 12.1 -14.5 16.2 -3.3 0.9 -9.3 3.4 -13.3 5.6 -4.1 2.1 -7.8 3.9 -8.3 3.9 -2.2 0 -11.4 -9.8 -13.5 -14.5 -3 -6.3 -3.2 -16.1 -0.5 -22 3.4 -7.5 8.8 -12.1 19.1 -16.4 5.2 -2.1 12.2 -4.7 15.5 -5.6 12.1 -3.5 30.2 -9.8 36 -12.5 7.1 -3.4 11.5 -9.1 11.5 -15.1 0 -4.7 -1 -5.3 -5.6 -3.4 -2.2 0.9 -6.7 1.5 -11.4 1.5 -7.3 0 -8 -0.2 -9.9 -2.6 -3.1 -3.9 -2.6 -7.2 1.4 -11.3 1.9 -2 5.3 -5.5 7.5 -7.8 4.1 -4.3 4.1 -4.3 11.1 -4.3 7.9 0 11.6 1.4 17.6 6.4 5.6 4.8 8.7 11.6 9.1 20.1 0.5 8.6 -0.8 13.5 -5 20 -5.1 7.6 -16 14.2 -28.6 17.1 -9.4 2.2 -34 10.1 -39 12.6 -11.9 5.9 -12.8 17.3 -1.8 22.4 8.7 4.1 8.6 4.2 8.6 -9.6 0 -10.4 0.2 -12 1.8 -12.8 4.4 -2.3 37.4 -11.3 39.2 -10.7 3.2 1 8.8 8.6 10.1 13.8 1.4 5.9 0.6 16.4 -1.6 20.8 -2.2 4.1 -6.2 8.6 -10 10.9 -3.1 1.9 -15 6 -29 10 -13.7 4 -20.6 10.4 -18.3 17 1.1 3.3 2.3 4.5 5.5 5.4 2.1 0.7 2.2 0.5 2.5 -7.6 0.3 -8.3 0.3 -8.3 7.3 -10.5 18.3 -5.9 25.7 -7.7 27.3 -6.6 3.4 2.1 6.2 9.3 6.2 16 0 12.8 -6.5 19.8 -24.2 25.7 -13.7 4.6 -16 5.8 -18.7 9.2 -3.2 4.1 -2.5 12.4 1.1 12.4 0.4 0 0.8 -2.7 0.8 -6.1 0 -6 0 -6 5.4 -8.4 3 -1.3 8.8 -3.4 13 -4.6 7.3 -2.1 7.7 -2.1 9.5 -0.5 1.1 1 2.7 3.9 3.5 6.4 3.8 11 0.5 20.3 -9.2 26.4 -5.8 3.5 -6.6 2.3 -6 -9.7 0.5 -9.3 0.4 -10.6 -1.3 -12.1 -1.8 -1.7 -1.9 -1.5 -1.9 3.8 0 5.5 0 5.5 -5.2 7.9 -5.7 2.7 -10.8 7.4 -10.8 10.2 0 2.7 -3.4 2.1 -8.1 -1.6 z  m 47.7 -178.8 c 0.3 -0.6 -0.1 -1.8 -1 -2.7 -1.5 -1.5 -1.7 -1.5 -3.2 0 -1.9 1.9 -1.1 3.8 1.6 3.8 1 0 2.2 -0.5 2.6 -1.1 z "/>
  <path d="M 228.7 319.5 c -7.3 -3.8 -14.1 -10.7 -17.2 -17.7 -2.4 -5.3 -2.7 -6.9 -2.3 -14.1 0.5 -10 3 -16 9 -21.2 5.8 -5.1 10.2 -6.8 17.2 -6.7 4.5 0.1 6.7 0.7 9.7 2.7 2.2 1.4 3.9 2.9 3.9 3.4 0 0.5 2.1 3 4.6 5.5 4.2 4.1 4.6 4.8 4 8 -0.9 4.9 -4.1 6.6 -12.6 6.6 -4 0 -8.6 -0.6 -10.6 -1.5 -4.5 -1.9 -5.4 -1.3 -5.4 3.4 0 4.5 4.3 11.1 9.2 14.1 3.3 2 17 6 20.6 6 2.1 0 2.2 -0.4 2.2 -7.7 0 -4.3 -0.7 -21.7 -1.4 -38.8 -0.8 -17 -1.2 -31.3 -1 -31.7 0.3 -0.5 4.6 -0.8 9.6 -0.8 9 0 9 0 8.3 19.2 -0.4 10.6 -1.1 28.3 -1.4 39.2 -0.5 16.2 -0.9 20 -2.1 20.7 -0.8 0.4 -5.5 2 -10.5 3.5 -9.3 2.7 -23.3 8.1 -24.9 9.6 -1.6 1.3 -3.8 0.9 -8.9 -1.7 z  m 14 -45 c 0.1 -0.5 -0.2 -1.7 -0.7 -2.5 -0.8 -1.3 -1.1 -1.3 -2.6 0.2 -0.9 0.9 -1.3 2.1 -0.9 2.8 0.8 1.3 3.7 1 4.2 -0.5 z "/>
  <path d="M 182.4 251.7 c -1.7 -0.7 -4.2 -2 -5.5 -3 -2.3 -1.6 -2.3 -1.8 -0.5 -3 3.6 -2.4 25.1 -20.5 28 -23.5 2.5 -2.7 2.7 -3.2 1.3 -3.8 -1.6 -0.6 -4.4 1.4 -13.6 9.2 -7.3 6.3 -21.7 15.8 -26.1 17.1 -5.7 1.8 -18.3 1.2 -22.7 -1 -1.7 -0.9 -4.8 -3.3 -7 -5.3 -3.8 -3.7 -3.8 -3.7 4.7 -5.4 4.7 -1 12.8 -3.4 18 -5.3 9.7 -3.5 36.6 -16.5 35.8 -17.2 -0.6 -0.6 -26.8 8 -35.2 11.6 -3.7 1.6 -7.6 2.9 -8.6 2.9 -0.9 0 -3 0.7 -4.6 1.5 -1.7 0.8 -6.1 1.7 -10 2.1 -9.7 0.9 -19.2 -2.4 -26.4 -9.2 -5.3 -5.1 -8.6 -10.2 -7.2 -11.6 0.4 -0.4 3.4 -0.3 6.7 0.3 3.2 0.6 9.2 0.8 13.4 0.5 28.9 -2.3 56.1 -5.6 62.8 -7.6 6.5 -1.9 -30.2 -0.7 -61.7 2.1 -15 1.3 -21.6 0.4 -30.9 -4.4 -9.3 -4.7 -17.9 -16.2 -18.4 -24.5 -0.2 -3.7 -0.2 -3.7 67.8 -4 68 -0.2 68 -0.2 74.1 2.8 4.8 2.5 6.8 4.3 9.7 8.7 2 3 3.9 7.1 4.2 9.1 1.2 8.3 2.7 12.8 4.8 14.4 2.8 2.2 8.1 3.8 13 3.8 3.7 0 3.7 0 3.7 12.9 0 12.9 0 12.9 -3.5 14.1 -1.9 0.6 -3.9 0.9 -4.4 0.6 -0.4 -0.3 -3 1.6 -5.7 4.3 -5.4 5.3 -13.8 9.1 -20.4 9.1 -4.9 0 -5.3 -1.9 -1.1 -4.9 2.5 -1.8 9.1 -11 9.1 -12.6 0 -0.3 -0.9 -0.5 -2 -0.5 -1.1 0 -2 0.4 -2 0.9 0 2.2 -14.1 15.2 -19.1 17.6 -6 2.8 -14.9 3.3 -20.5 1.2 z  m 59.6 -28.7 c 0 -1.4 -0.7 -2 -2.3 -2 -1.3 0 -5.2 -1.4 -8.6 -3.1 -7.3 -3.6 -10.5 -8 -13.3 -17.9 -2.2 -8 -6.2 -13.1 -11.4 -14.7 -4.6 -1.4 -84.8 -1.8 -82.4 -0.4 3.8 2.1 19.2 3.1 48.6 3.1 26.2 0 32 0.3 34.4 1.5 3.3 1.7 5.2 4.8 7 11.5 3.1 11.6 10.7 19.9 21 23.1 4.7 1.4 7 1.1 7 -1.1 z "/>
  <path d="M 335.8 251.6 c -6.6 -2.4 -16.3 -10 -15.1 -11.9 0.3 -0.5 0.2 -0.8 -0.3 -0.5 -0.5 0.3 -2.2 -1.1 -3.9 -3.2 -1.6 -2.1 -4 -4 -5.2 -4.3 -1.5 -0.3 -2 0 -1.6 0.7 0.4 0.6 1.7 2.7 2.9 4.7 1.3 2 2.1 4 1.8 4.3 -0.2 0.3 -0.2 0.4 0.1 0.2 0.8 -0.5 7.5 5.9 7.5 7.1 0 1.8 -8 1.3 -13.8 -0.9 -5.5 -2.1 -15.7 -10.2 -14.7 -11.8 0.3 -0.5 -1.2 -0.6 -3.3 -0.3 -6.4 0.9 -7.2 -0.8 -7.2 -14.6 0 -11.8 0 -11.8 6.5 -12.4 11 -1 14.7 -4.9 15.9 -16.5 0.8 -8 6 -15.3 13.8 -19.2 6.1 -3 6.1 -3 74.1 -3 68 0 68 0 67.4 4.9 -0.3 2.8 -1.3 6.3 -2.1 7.9 -2.7 5.3 -10.4 12.8 -16.3 15.9 -8.9 4.8 -15.6 5.8 -29.8 4.5 -11.6 -1.1 -17.2 -1.5 -41.5 -2.8 -6.3 -0.3 -11.7 -0.6 -12 -0.6 -0.3 0 -3 0.1 -6 0.2 -5.5 0.2 -5.5 0.2 0 1.6 7.2 1.8 18 3.2 28.7 4 4.8 0.3 9 0.7 9.4 0.9 1.9 1.2 31 2.4 35.9 1.5 2.9 -0.6 5.7 -0.7 6.1 -0.3 1.4 1.4 -2.3 7.3 -7.8 12.3 -9.4 8.6 -24.5 11.3 -36.1 6.5 -1.9 -0.8 -4.3 -1.5 -5.3 -1.5 -0.9 0 -2.4 -0.6 -3.1 -1.2 -0.7 -0.7 -2.2 -1.5 -3.3 -1.6 -1.1 -0.2 -4.2 -1.3 -7 -2.4 -8.8 -3.5 -11.8 -4.6 -20.4 -7.2 -4.6 -1.5 -8.6 -2.4 -8.8 -2.2 -0.7 0.7 20.8 11.5 29.7 15 4.1 1.6 7.8 3.4 8.2 4 0.4 0.6 0.8 0.8 0.8 0.3 0 -0.4 1.6 -0.1 3.5 0.7 1.9 0.8 7.1 2 11.5 2.7 4.4 0.7 8 1.5 8 1.9 0 1.2 -6.5 6.8 -10 8.6 -2.7 1.5 -5.7 1.9 -13.5 1.9 -10.8 0 -11.8 -0.4 -22.1 -8 -2.3 -1.6 -5.4 -3.9 -7 -5 -1.6 -1.1 -4.1 -3.1 -5.5 -4.5 -1.4 -1.4 -3 -2.6 -3.5 -2.7 -0.5 -0.1 -3.1 -1.9 -5.8 -3.9 -3.1 -2.3 -5.2 -3.2 -5.8 -2.6 -1 1 19.2 19.6 26.8 24.6 2.4 1.5 4.4 3.3 4.4 3.8 0 0.5 -2.4 2 -5.2 3.3 -6 2.8 -14 3.2 -20 1.1 z  m -33.8 -27.6 c 0 -0.4 1.5 -1.1 3.3 -1.8 4.4 -1.6 11.6 -8.8 13.8 -13.7 1 -2.3 2.1 -6 2.5 -8.4 0.5 -3.2 1.7 -5.4 4.5 -8.2 3.8 -3.8 3.8 -3.8 41.1 -4.2 29 -0.3 38.2 -0.7 41.3 -1.8 3.6 -1.3 0.1 -1.4 -36.2 -1.7 -39.3 -0.2 -40.4 -0.2 -44.8 1.9 -3.7 1.8 -5 3.1 -7 7.4 -1.4 2.8 -2.5 5.9 -2.5 6.8 0 2.1 -1.8 6.3 -4.8 10.8 -2.6 4.1 -9.7 8.4 -15.7 9.5 -3.7 0.6 -5.4 1.8 -5.5 3.7 0 0.4 2.2 0.7 5 0.5 2.7 -0.2 5 -0.5 5 -0.8 z "/>
  <path d="M 258 212.6 c 0 -6.8 0.3 -13.2 0.6 -14.1 0.9 -2.3 5.7 -4.5 9.9 -4.5 2.7 0 4.4 0.8 6.6 2.9 2.9 2.9 2.9 3 2.9 15.5 0 12.6 0 12.6 -10 12.6 -10 0 -10 0 -10 -12.4 z "/>
  <path d="M292.6 162.5 C 292.6 176.1 281.5 187.2 267.8 187.2 254.1 187.2 243 176.1 243 162.5 243 148.8 254.1 137.7 267.8 137.7 281.5 137.7 292.6 148.8 292.6 162.5 Z M260.5 186.1 "/>
 </g>
</svg>