<?xml version="1.0" encoding="utf-8"?>
<!DOCTYPE svg PUBLIC "-//W3C//DTD SVG 1.0//EN" "http://www.w3.org/TR/2001/REC-SVG-20010904/DTD/svg10.dtd">
<svg version="1.0" xmlns="http://www.w3.org/2000/svg" width="656px" height="416px" viewBox="0 0 656 416" preserveAspectRatio="xMidYMid meet">
 <g fill="#1e4620">
  <path d="M23.3 392.5 c19.9 -3.5 36.7 -7.8 58.2 -15 24.1 -8 38.9 -14.3 74.5 -31.5 15.7 -7.5 32.2 -15.1 36.7 -16.8 25.9 -9.9 50.1 -13.4 66.3 -9.6 14.4 3.3 35.6 15.7 54.8 31.8 10.2 8.7 10.2 8.7 18.5 0.5 18.7 -18.7 38.1 -29.6 59.2 -33 10.6 -1.7 28.4 -0.6 41 2.5 19.2 4.8 26.1 7.6 65.5 26.6 52.3 25.2 86 36.9 128.5 44.5 14 2.5 14 2.5 3.5 1.9 -31.9 -1.6 -67.6 -9.3 -102.7 -22 -7 -2.5 -25.2 -9.9 -40.3 -16.4 -43.9 -18.8 -56.6 -22.4 -79.5 -22.5 -12 0 -15.1 0.3 -21.5 2.3 -19.3 6.1 -35.6 18.1 -53.5 39.4 -7.3 8.6 -7.3 8.6 -11.6 4.1 -15.9 -16.3 -43.6 -36.6 -58.2 -42.5 -7.9 -3.2 -8.7 -3.3 -21.7 -3.3 -21.6 0 -34.4 3.7 -76.4 21.7 -40.3 17.3 -57.3 23.3 -85.1 30.1 -16.6 4.1 -35.4 7.2 -52 8.7 -18.2 1.5 -19.4 1.1 -4.2 -1.5z"/>
  <path d="M326.4 321 c15.3 -32.1 21.5 -59.3 20.3 -88.4 -1.2 -28.2 -7.1 -46.4 -27.7 -85.6 -11.2 -21.4 -12.4 -47.1 -3.3 -69.8 2.8 -7 7.9 -16.2 11.2 -20.3 2 -2.4 2 -2.4 0.1 5.1 -3.4 13 -4.5 27.4 -3.2 39.7 2.1 20.4 7.3 34.9 19.1 53.7 17.4 27.6 24.4 48.5 24.4 72.1 0 31.6 -10.4 59.2 -34.4 91 -13 17.3 -13.6 17.6 -6.5 2.5z"/>
 </g>
 <g fill="#4a8f4d">
  <path d="M300.5 328 c-1.4 -4.4 1.8 -8 5.5 -6 4.3 2.3 3 8 -2 8 -2 0 -3.1 -0.6 -3.5 -2z"/>
  <path d="M307.8 308.9 c-2.4 -1.4 -2.3 -6.1 0.2 -8.4 4.5 -4.1 11 1.8 7.6 7 -1.7 2.6 -4.8 3.2 -7.8 1.4z"/>
  <path d="M316.7 282.2 c-2.6 -2.8 -2.1 -6.9 0.9 -8.9 2.4 -1.5 2.9 -1.5 5.3 -0.2 1.6 0.9 2.7 2.5 2.9 4.3 0.7 5.5 -5.6 8.7 -9.1 4.8z"/>
  <path d="M318.5 252.5 c-2.9 -2.8 -3.2 -5.5 -0.7 -8.3 2.9 -3.5 6.7 -3.8 9.6 -0.8 1.5 1.4 2.6 3.5 2.6 4.6 0 2.7 -4.3 7 -7 7 -1.1 0 -3.2 -1.1 -4.5 -2.5z"/>
  <path d="M319.7 226.9 c-3.3 -2.5 -3.7 -7.7 -0.9 -10.2 2.5 -2.2 7.5 -2.1 9.5 0.1 5.4 6 -2.4 15 -8.6 10.1z"/>
  <path d="M313.5 202.8 c-2.8 -1.6 -3.5 -2.8 -3.5 -6.5 0 -3.4 3.7 -7.3 7 -7.3 3.4 0 7 3.9 7 7.5 0 2.4 -0.7 3.9 -2.6 5.4 -3 2.4 -5 2.6 -7.9 0.9z"/>
  <path d="M300.5 173.5 c-5.4 -5.3 -1.6 -14.5 6 -14.5 4.9 0 8.5 3.6 8.5 8.5 0 4.9 -3.6 8.5 -8.5 8.5 -2.5 0 -4.4 -0.8 -6 -2.5z"/>
  <path d="M294.5 151.8 c-5.1 -3 -6 -8.4 -2 -12.3 4.8 -4.9 12.5 -1.6 12.7 5.5 0.2 5.3 -6.2 9.4 -10.7 6.8z"/>
  <path d="M283.1 122.4 c-2.7 -3.4 -2.7 -6.4 0 -9.8 2 -2.6 5.7 -3.4 9.4 -2 2.7 1.1 4.5 6.2 3.3 9.6 -1.9 5.4 -9.2 6.7 -12.7 2.2z"/>
  <path d="M287.2 96.8 c-4.3 -2.1 -4.1 -10 0.4 -12 3.4 -1.6 7.5 0 9.2 3.4 1.1 2.3 1 3.2 -0.2 5.6 -2.2 4.2 -5 5.1 -9.4 3z"/>
  <path d="M297 72 c-4.1 -4.1 -1 -11 4.8 -11 3.3 0 4.5 0.8 6.1 3.8 3.4 6.5 -5.6 12.5 -10.9 7.2z"/>
  <path d="M305.7 50.2 c-3.4 -3.8 -0.9 -10.2 3.9 -10.2 2.5 0 3.8 1 5.3 3.7 3 5.7 -4.9 11.3 -9.2 6.5z"/>
  <path d="M311.2 29.8 c-2.8 -2.8 -0.3 -8.8 3.7 -8.8 2.2 0 5.1 3 5.1 5.3 0 3.8 -6.1 6.2 -8.8 3.5z"/>
 </g>
</svg>