<?xml version="1.0" encoding="utf-8"?>
<!DOCTYPE svg PUBLIC "-//W3C//DTD SVG 1.0//EN" "http://www.w3.org/TR/2001/REC-SVG-20010904/DTD/svg10.dtd">
<svg version="1.0" xmlns="http://www.w3.org/2000/svg" width="256px" height="448px" viewBox="0 0 256 448" preserveAspectRatio="xMidYMid meet">
 <g fill="#ffffff">
  <path d="M 47 439 c 0 -9 0 -9 36.5 -9 36.5 0 36.5 0 36.5 -31 0 -31 0 -31 -2.2 -31.4 -1.3 -0.2 -6.6 -1.1 -11.8 -2 -24.9 -4 -47.6 -15.7 -66.9 -34.1 -15.7 -15.1 -26.5 -32.1 -33 -51.8 -5.8 -17.7 -6.1 -21.4 -6.1 -72.8 0 -46.9 0 -46.9 9.5 -46.9 9.5 0 9.5 0 9.5 37.8 0 41.7 0.9 56.7 4 68.7 9.2 35 35.7 63.3 70.8 75.9 20.9 7.5 49.5 7.5 70.4 0 35.4 -12.7 61.8 -41.2 70.9 -76.7 3 -12 3.9 -26.2 3.9 -67.9 0 -37.8 0 -37.8 8.6 -37.8 8.5 0 8.5 0 8.2 50.8 -0.4 50.7 -0.4 50.7 -3 60.4 -5.5 20.3 -13.8 36.4 -26.5 51.7 -19.1 23 -47.1 38.9 -75.7 43.2 -3.9 0.6 -8.1 1.2 -9.3 1.5 -2.3 0.4 -2.3 0.4 -2.3 31.4 0 31 0 31 34.5 31 34.5 0 34.5 0 34.5 9 0 9 0 9 -80.5 9 -80.5 0 -80.5 0 -80.5 -9 z "/>
  <path d="M 112.9 320.5 c -29.7 -5.9 -54.4 -30.6 -61.9 -61.7 -1.9 -8 -2 -11.8 -2 -97.5 0 -97.7 -0.1 -95.7 6 -111 7.8 -19.4 22.1 -34.7 40.5 -43.3 11.3 -5.3 19.1 -7 32.4 -7 13.2 0 21.3 1.7 32.6 7 22.8 10.6 39.6 32.1 45 58 2.3 11 2.2 180.5 -0.1 191.8 -5.5 26.6 -24.7 49.9 -49.4 59.9 -12.6 5.1 -29.3 6.5 -43.1 3.8 z "/>
 </g>
</svg>