<?xml version="1.0" encoding="utf-8"?>
<!DOCTYPE svg PUBLIC "-//W3C//DTD SVG 1.0//EN" "http://www.w3.org/TR/2001/REC-SVG-20010904/DTD/svg10.dtd">
<svg version="1.0" xmlns="http://www.w3.org/2000/svg" width="636px" height="746px" viewBox="0 0 636 746" preserveAspectRatio="xMidYMid meet">
 <g fill="#18402d">
  <path d="M298.4 745 c-39.7 -2.3 -85.5 -14.5 -120.6 -32.1 -98.1 -49.2 -164.7 -146.2 -175.8 -255.8 -1.3 -13.2 -1.3 -48.3 0 -60.9 6.2 -58 25.8 -110.6 58.3 -156.2 47.2 -66.2 116.2 -110.7 197 -127 5.7 -1.1 5.7 -1.1 5.7 -29.1 0 -15.3 -0.4 -27.9 -0.8 -27.9 -0.5 0 -2.7 -1.6 -5 -3.5 -9.4 -8.1 -12.3 -22.6 -6.8 -33.8 3.1 -6.4 9.9 -13 16.4 -16 4.6 -2.2 5.7 -2.2 50.7 -2.2 46 0 46 0 51.8 2.9 11.3 5.8 17.9 15.8 17.9 27.5 0.1 8.9 -2.9 15.7 -9.3 21.5 -4.9 4.4 -4.9 4.4 -4.9 31.8 0 27.3 0 27.3 11.8 29.6 38.2 7.4 83.1 26.5 115.2 49 18.8 13.2 43.2 35.4 59.1 53.8 43.3 50.3 70.1 115 76 183.4 1.4 16.7 0.6 52.2 -1.6 68 -9.8 70.4 -42.2 136.8 -90.5 185 -47.2 47.2 -104.9 76.6 -174 88.4 -12.7 2.2 -45.8 4.9 -54.5 4.4 -1.6 0 -8.9 -0.4 -16.1 -0.8z m27.3 -75.4 c2.8 -2.4 2.8 -2.4 3.1 -35.4 0.3 -32.9 0.3 -32.9 8 -33.5 15.8 -1.3 38.7 -7.5 55.3 -15 5.6 -2.6 5.6 -2.6 20.5 23.1 8.2 14.1 16.3 27.2 18 29 5.8 5.9 14.8 3.6 17.4 -4.3 1.4 -4.3 2.2 -2.6 -16.8 -35.6 -7.8 -13.5 -14.2 -25 -14.2 -25.5 0.1 -0.5 2.6 -2.7 5.8 -4.9 9 -6.4 27.1 -24.6 34.2 -34.4 3.6 -4.9 7 -9 7.6 -9 1.1 -0.1 29.8 16.5 46.2 26.6 4.6 2.8 8.5 4.5 10.6 4.6 9.2 0.3 14.5 -11.2 8.1 -17.5 -1.3 -1.3 -14 -9.2 -28.3 -17.6 -26.1 -15.3 -26.1 -15.3 -23.1 -22 7.1 -15.8 12.4 -35.3 14.4 -53.4 0.6 -5.7 0.6 -5.7 33 -6 32.5 -0.3 32.5 -0.3 35.7 -3.5 4.4 -4.5 4.5 -9.9 0.3 -14.3 -2.9 -3 -2.9 -3 -35.6 -3 -32.8 0 -32.8 0 -33.4 -5.7 -2 -18.3 -7.7 -40.1 -14.5 -55 -2.8 -6.2 -2.8 -6.2 24.1 -22.4 14.9 -8.9 27.6 -17.1 28.4 -18.3 1.9 -2.7 1.9 -9.6 0 -12.3 -1.9 -2.6 -7.7 -4.7 -10.7 -3.8 -1.3 0.4 -14.2 7.7 -28.7 16.3 -30.2 17.8 -25.3 17.3 -36.1 3.2 -6.5 -8.6 -22.8 -24.4 -31.7 -30.7 -3.5 -2.4 -6.3 -4.6 -6.3 -4.7 0 -0.5 20.7 -37.9 25.8 -46.6 6 -10.3 6.8 -13.9 3.8 -18.4 -3.1 -4.8 -10.4 -6.1 -14.9 -2.6 -1.4 1.1 -4.8 6 -7.5 10.8 -4.9 8.9 -4.9 8.9 -2.1 10.1 1.5 0.6 3.2 2.5 3.7 4 1.2 3.4 0 7 -8.7 26.1 -6.4 14 -45.7 103.5 -65 148 -9.9 23 -11.5 25.9 -15.6 29.7 -13.6 12.5 -34.8 8.2 -42.4 -8.7 -2.5 -5.4 -2.7 -13.6 -0.6 -18.7 1.3 -3.1 17.5 -27.1 52.5 -77.8 22.4 -32.4 46 -67.5 46 -68.3 0 -3.4 -36.2 -14.4 -51.3 -15.7 -13.2 -1.1 -11.7 3.3 -11.7 -34.4 0 -31.1 -0.1 -33 -2 -35.3 -4.6 -5.9 -13.8 -5.9 -17.6 0 -1.6 2.5 -1.7 5.4 -1.5 35.4 0.3 32.7 0.3 32.7 -3.1 33.2 -1.8 0.2 -7.1 1 -11.8 1.6 -16 2.1 -37.1 8.5 -50.3 15.2 -2.2 1.1 -4 1.8 -4.2 1.6 -0.1 -0.2 -7.1 -12.2 -15.5 -26.8 -8.3 -14.6 -16.1 -27.5 -17.2 -28.7 -4.9 -5.3 -14.6 -3.4 -17.4 3.3 -0.8 2 -1.2 4.5 -0.8 5.7 0.4 1.2 7.1 13.3 15 27 7.9 13.6 15.1 26.1 15.9 27.7 1.5 2.8 1.5 2.9 -3.8 6.7 -13.2 9.6 -31.2 28.1 -39.1 40 -1.3 2.1 -2.6 3.1 -3.6 2.7 -0.8 -0.3 -13.2 -7.3 -27.4 -15.7 -27.7 -16.2 -30.2 -17.1 -35.8 -13.5 -1.5 1 -3.1 3.3 -3.8 5.3 -1 3 -0.9 4.1 0.7 7.3 1.9 3.9 1.2 3.5 40.8 26.7 8.3 4.8 15.2 8.9 15.4 9.1 0.2 0.2 -1.7 5.4 -4.2 11.6 -5.9 14.7 -9.4 27.9 -11.5 43.1 -1.8 12.2 -1.8 12.2 -34.2 12.5 -34.8 0.2 -36 0.4 -38.6 5.4 -1.8 3.5 -1.8 6.2 0.1 9.8 3 5.8 4.3 6 39.5 6 32 0 32 0 32 3.3 0 5.5 2.9 21.7 5.7 31.7 2.1 7.6 6.3 19 10.9 29.6 0.3 0.6 -10.7 7.7 -24.3 15.9 -13.6 8.1 -26.2 15.8 -28 17.1 -4.4 3.3 -5.9 8.3 -3.8 12.7 1.8 3.8 6.1 6.7 10.1 6.7 1.8 0 11.8 -5.5 28.5 -15.5 14.2 -8.5 26.4 -15.8 27.2 -16.1 0.9 -0.3 3.9 2.9 8.4 8.8 3.9 5.1 11.1 13.2 16 18 8.9 8.8 11.2 10.8 19.4 17 4.6 3.5 4.6 3.5 -11.2 31.4 -16.2 28.4 -17.5 31.6 -14.9 36.5 1.3 2.4 6.1 4.9 9.5 4.9 6 0 7.5 -1.9 23.9 -30.8 16 -27.9 16 -27.9 24.1 -24.1 16.1 7.4 36.1 12.8 53.3 14.5 5 0.4 7.2 1.1 7.3 2 0.1 0.8 0.3 1.9 0.4 2.4 0.1 0.6 0.3 14.5 0.4 31.1 0.1 30.1 0.1 30.1 3 33 3.9 3.9 10.6 4.1 14.8 0.5z"/>
 </g>
</svg>